<?xml version="1.0" encoding="UTF-8"?>
<svg xmlns="http://www.w3.org/2000/svg" xmlns:xlink="http://www.w3.org/1999/xlink" width="193pt" height="193pt" viewBox="0 0 193 193" version="1.1">
<g id="surface1">
<path style=" stroke:none;fill-rule:evenodd;fill:rgb(100%,100%,100%);fill-opacity:1;" d="M 0 0.242188 L 192.757813 0.242188 L 192.757813 193 L 0 193 L 0 0.242188 "/>
<path style=" stroke:none;fill-rule:nonzero;fill:rgb(0.39978%,39.99939%,68.598938%);fill-opacity:1;" d="M 77.507813 69.96875 L 77.507813 97.582031 L 173.457031 97.582031 L 173.457031 69.96875 Z M 171.699219 95.824219 L 79.265625 95.824219 L 79.265625 71.730469 L 171.699219 71.730469 Z M 162.796875 87.292969 L 162.796875 85.429688 L 164.023438 85.429688 L 164.023438 87.453125 C 164.023438 88.785156 164.183594 88.894531 164.34375 88.894531 C 164.554688 88.894531 164.714844 88.785156 164.714844 87.878906 L 164.714844 85.429688 C 164.714844 84.628906 164.394531 84.308594 164.023438 84.308594 L 164.023438 82.761719 C 164.609375 82.816406 164.714844 82.230469 164.714844 81.429688 L 164.714844 80.203125 C 164.714844 79.246094 164.820313 78.390625 164.394531 78.390625 C 163.96875 78.390625 164.023438 79.136719 164.023438 79.671875 L 164.023438 81.695313 L 162.796875 81.695313 L 162.796875 79.511719 C 162.796875 77.433594 163.382813 76.792969 164.394531 76.792969 C 165.566406 76.792969 165.941406 77.910156 165.941406 79.402344 L 165.941406 81.589844 C 165.941406 81.589844 165.941406 83.507813 164.980469 83.613281 C 165.890625 84.09375 165.941406 84.683594 165.941406 85.535156 L 165.941406 87.773438 C 165.941406 89.90625 165.300781 90.492188 164.394531 90.492188 C 163.0625 90.492188 162.796875 89.210938 162.796875 87.292969 Z M 156.1875 80.097656 L 155.28125 80.097656 L 155.28125 78.65625 C 155.921875 78.496094 156.398438 78.179688 156.398438 76.953125 L 157.359375 76.953125 L 157.359375 90.332031 L 156.1875 90.332031 Z M 150.003906 76.953125 L 152.667969 76.953125 L 152.667969 78.65625 L 151.230469 78.65625 L 151.230469 82.121094 L 152.617188 82.121094 L 152.617188 83.882813 L 151.230469 83.882813 L 151.230469 88.574219 L 152.722656 88.574219 L 152.722656 90.332031 L 150.003906 90.332031 Z M 146.003906 88.359375 L 146.003906 78.925781 C 146.003906 77.164063 146.804688 76.6875 147.550781 76.6875 C 148.296875 76.6875 149.148438 77.164063 149.148438 78.925781 L 149.148438 81.804688 L 147.925781 81.804688 L 147.925781 79.085938 C 147.925781 78.390625 147.816406 78.285156 147.550781 78.285156 C 147.339844 78.285156 147.179688 78.390625 147.179688 79.085938 L 147.179688 88.199219 C 147.179688 88.839844 147.339844 89 147.550781 89 C 147.816406 89 147.925781 88.839844 147.925781 88.199219 L 147.925781 85.269531 L 149.148438 85.269531 L 149.148438 88.359375 C 149.148438 90.117188 148.296875 90.597656 147.550781 90.597656 C 146.804688 90.597656 146.003906 90.117188 146.003906 88.359375 Z M 142.222656 78.871094 C 142.222656 78.871094 142.222656 79.457031 142.222656 90.332031 L 141.261719 90.332031 L 141.261719 76.953125 L 143.019531 76.953125 L 143.925781 88.359375 L 143.925781 76.953125 L 144.9375 76.953125 L 144.9375 90.332031 L 143.179688 90.332031 Z M 139.074219 76.953125 L 140.25 76.953125 L 140.25 90.332031 L 139.074219 90.332031 Z M 134.703125 88.359375 L 134.703125 85.269531 L 135.878906 85.269531 L 135.878906 88.199219 C 135.878906 88.839844 136.039063 89 136.25 89 C 136.515625 89 136.621094 88.839844 136.621094 88.199219 L 136.621094 86.761719 C 136.621094 84.894531 134.703125 83.027344 134.703125 80.84375 L 134.703125 78.925781 C 134.703125 77.164063 135.503906 76.6875 136.25 76.6875 C 136.996094 76.6875 137.851563 77.164063 137.851563 78.925781 L 137.851563 81.75 L 136.621094 81.75 L 136.621094 79.085938 C 136.621094 78.390625 136.515625 78.285156 136.25 78.285156 C 136.039063 78.285156 135.878906 78.390625 135.878906 79.085938 L 135.878906 80.738281 C 135.878906 81.695313 137.851563 84.628906 137.851563 85.960938 L 137.851563 88.359375 C 137.851563 90.117188 136.996094 90.597656 136.25 90.597656 C 135.503906 90.597656 134.703125 90.117188 134.703125 88.359375 Z M 168.605469 76.6875 C 167.273438 76.6875 167.007813 77.910156 167.007813 79.296875 L 167.007813 83.667969 C 167.007813 85.535156 167.59375 85.800781 168.074219 85.800781 C 168.394531 85.800781 168.714844 85.535156 168.925781 85.160156 L 168.925781 87.933594 C 168.925781 88.414063 168.925781 88.785156 168.554688 88.785156 C 168.234375 88.785156 168.234375 88.414063 168.234375 87.933594 L 168.234375 86.28125 L 167.007813 86.28125 L 167.007813 87.613281 C 167.007813 89.371094 167.433594 90.386719 168.554688 90.386719 C 169.671875 90.386719 170.152344 89.320313 170.152344 87.664063 L 170.152344 79.136719 C 170.152344 77.539063 169.621094 76.6875 168.605469 76.6875 Z M 168.925781 83.242188 C 168.925781 83.613281 168.871094 83.988281 168.605469 83.988281 C 168.285156 83.988281 168.234375 83.667969 168.234375 83.242188 L 168.234375 79.136719 C 168.234375 78.710938 168.234375 78.285156 168.554688 78.285156 C 168.925781 78.285156 168.925781 78.871094 168.925781 79.402344 Z M 160.289063 76.6875 C 158.960938 76.6875 158.691406 77.910156 158.691406 79.296875 L 158.691406 83.667969 C 158.691406 85.535156 159.277344 85.800781 159.757813 85.800781 C 160.078125 85.800781 160.398438 85.535156 160.609375 85.160156 L 160.609375 87.933594 C 160.609375 88.414063 160.609375 88.785156 160.238281 88.785156 C 159.917969 88.785156 159.917969 88.414063 159.917969 87.933594 L 159.917969 86.28125 L 158.691406 86.28125 L 158.691406 87.613281 C 158.691406 89.371094 159.117188 90.386719 160.238281 90.386719 C 161.359375 90.386719 161.835938 89.320313 161.835938 87.664063 L 161.835938 79.136719 C 161.835938 77.539063 161.304688 76.6875 160.289063 76.6875 Z M 160.609375 83.242188 C 160.609375 83.613281 160.558594 83.988281 160.289063 83.988281 C 159.972656 83.988281 159.917969 83.667969 159.917969 83.242188 L 159.917969 79.136719 C 159.917969 78.710938 159.917969 78.285156 160.238281 78.285156 C 160.609375 78.285156 160.609375 78.871094 160.609375 79.402344 Z M 115.140625 78.070313 L 115.140625 80.363281 L 114.449219 80.363281 L 114.449219 76.953125 L 115.195313 76.953125 L 116.632813 79.246094 L 116.632813 76.953125 L 117.328125 76.953125 L 117.328125 80.363281 L 116.578125 80.363281 Z M 113.007813 76.953125 L 113.753906 76.953125 L 113.753906 80.363281 L 113.007813 80.363281 Z M 87.15625 76.953125 L 89.714844 76.953125 L 89.714844 77.59375 L 87.902344 77.59375 L 87.902344 78.285156 L 89.554688 78.285156 L 89.554688 78.871094 L 87.902344 78.871094 L 87.902344 79.722656 L 89.769531 79.722656 L 89.769531 80.363281 L 87.15625 80.363281 Z M 86.089844 78.871094 L 84.703125 78.871094 L 84.703125 80.363281 L 83.957031 80.363281 L 83.957031 76.953125 L 84.703125 76.953125 L 84.703125 78.230469 L 86.089844 78.230469 L 86.089844 76.953125 L 86.890625 76.953125 L 86.890625 80.363281 L 86.089844 80.363281 Z M 82.679688 80.363281 L 81.933594 80.363281 L 81.933594 77.59375 L 80.917969 77.59375 L 80.917969 76.953125 L 83.746094 76.953125 L 83.746094 77.59375 L 82.679688 77.59375 Z M 113.007813 81.378906 L 117.328125 81.378906 L 117.328125 82.65625 L 113.007813 82.65625 Z M 80.917969 81.378906 L 89.714844 81.378906 L 89.714844 82.65625 L 80.917969 82.65625 Z M 128.363281 88.945313 L 129.746094 78.65625 L 128.414063 78.65625 L 128.414063 76.953125 L 131.027344 76.953125 L 131.027344 78.390625 L 129.640625 88.574219 L 131.027344 88.574219 L 131.027344 90.332031 L 128.363281 90.332031 Z M 124.949219 88.945313 L 126.335938 78.65625 L 124.949219 78.65625 L 124.949219 76.953125 L 127.617188 76.953125 L 127.617188 78.390625 L 126.175781 88.574219 L 127.617188 88.574219 L 127.617188 90.332031 L 124.949219 90.332031 Z M 111.25 90.332031 L 110.023438 90.332031 L 110.023438 78.65625 L 109.011719 78.65625 L 109.011719 76.953125 L 112.261719 76.953125 L 112.261719 78.65625 L 111.25 78.65625 Z M 105.441406 88.359375 L 105.441406 85.269531 L 106.664063 85.269531 L 106.664063 88.199219 C 106.664063 88.839844 106.773438 89 107.039063 89 C 107.253906 89 107.410156 88.839844 107.410156 88.199219 L 107.410156 86.761719 C 107.410156 84.894531 105.441406 83.027344 105.441406 80.84375 L 105.441406 78.925781 C 105.441406 77.164063 106.292969 76.6875 107.039063 76.6875 C 107.785156 76.6875 108.585938 77.164063 108.585938 78.925781 L 108.585938 81.75 L 107.410156 81.75 L 107.410156 79.085938 C 107.410156 78.390625 107.253906 78.285156 107.039063 78.285156 C 106.773438 78.285156 106.664063 78.390625 106.664063 79.085938 L 106.664063 80.738281 C 106.664063 81.695313 108.585938 84.628906 108.585938 85.960938 L 108.585938 88.359375 C 108.585938 90.117188 107.785156 90.597656 107.039063 90.597656 C 106.292969 90.597656 105.441406 90.117188 105.441406 88.359375 Z M 101.921875 76.953125 L 104.585938 76.953125 L 104.585938 78.65625 L 103.09375 78.65625 L 103.09375 82.121094 L 104.535156 82.121094 L 104.535156 83.882813 L 103.09375 83.882813 L 103.09375 88.574219 L 104.585938 88.574219 L 104.585938 90.332031 L 101.921875 90.332031 Z M 98.082031 80.628906 C 98.082031 80.628906 98.082031 81.214844 98.082031 90.332031 L 97.125 90.332031 L 97.125 76.953125 L 98.882813 76.953125 L 99.84375 86.652344 L 99.84375 76.953125 L 100.800781 76.953125 L 100.800781 90.332031 L 99.042969 90.332031 Z M 94.832031 76.953125 L 96.003906 76.953125 L 96.003906 90.332031 L 94.832031 90.332031 Z M 92.113281 82.121094 L 93.554688 82.121094 L 93.554688 83.882813 L 92.113281 83.882813 L 92.113281 90.332031 L 90.886719 90.332031 L 90.886719 76.953125 L 93.605469 76.953125 L 93.605469 78.65625 L 92.113281 78.65625 Z M 117.0625 88.09375 L 117.0625 85.214844 L 118.285156 85.214844 L 118.285156 88.039063 C 118.285156 88.945313 118.445313 89 118.605469 89 C 118.765625 89 118.925781 88.945313 118.925781 88.039063 L 118.925781 76.953125 L 120.152344 76.953125 L 120.152344 88.304688 C 120.152344 90.066406 119.246094 90.597656 118.554688 90.597656 C 117.699219 90.597656 117.0625 89.585938 117.0625 88.09375 Z M 123.457031 76.953125 L 121.644531 76.953125 L 120.738281 90.332031 L 121.804688 90.332031 L 122.070313 87.558594 L 122.925781 87.558594 L 123.136719 90.332031 L 124.363281 90.332031 Z M 122.179688 85.855469 L 122.496094 80.257813 L 122.816406 85.855469 Z M 14.289063 105.949219 C 14.289063 96.355469 27.878906 88.574219 44.671875 88.574219 C 61.410156 88.574219 75.003906 96.355469 75.003906 105.949219 C 75.003906 115.492188 61.410156 123.273438 44.671875 123.273438 C 27.878906 123.273438 14.289063 115.492188 14.289063 105.949219 Z M 163.597656 102.59375 L 173.136719 102.59375 L 173.136719 104.457031 L 166.421875 104.457031 L 166.421875 106.589844 L 172.550781 106.589844 L 172.550781 108.296875 L 166.421875 108.296875 L 166.421875 110.746094 L 173.246094 110.746094 L 173.246094 112.613281 L 163.597656 112.613281 Z M 158.691406 112.613281 L 155.921875 112.613281 L 155.921875 104.457031 L 152.082031 104.457031 L 152.082031 102.59375 L 162.53125 102.59375 L 162.53125 104.457031 L 158.691406 104.457031 Z M 130.28125 105.898438 L 130.28125 112.613281 L 127.667969 112.613281 L 127.667969 102.59375 L 130.441406 102.59375 L 135.769531 109.308594 L 135.769531 102.59375 L 138.382813 102.59375 L 138.382813 112.613281 L 135.609375 112.613281 Z M 113.648438 102.59375 L 123.191406 102.59375 L 123.191406 104.457031 L 116.472656 104.457031 L 116.472656 106.589844 L 122.605469 106.589844 L 122.605469 108.296875 L 116.472656 108.296875 L 116.472656 110.746094 L 123.296875 110.746094 L 123.296875 112.613281 L 113.648438 112.613281 Z M 90.992188 102.59375 L 93.765625 102.59375 L 93.765625 110.746094 L 99.949219 110.746094 L 99.949219 112.613281 L 90.992188 112.613281 Z M 100.855469 108.828125 L 100.855469 102.59375 L 103.628906 102.59375 L 103.628906 108.828125 C 103.628906 109.894531 104 111.015625 106.292969 111.015625 C 108.265625 111.015625 108.90625 110.320313 108.90625 108.828125 L 108.90625 102.59375 L 111.675781 102.59375 L 111.675781 108.828125 C 111.675781 111.546875 109.652344 112.828125 106.292969 112.828125 C 102.828125 112.828125 100.855469 111.546875 100.855469 108.828125 Z M 145.847656 102.378906 C 141.902344 102.378906 139.554688 104.671875 139.554688 107.65625 C 139.554688 110.535156 141.902344 112.828125 145.847656 112.828125 C 149.789063 112.828125 152.082031 110.535156 152.082031 107.65625 C 152.082031 104.671875 149.789063 102.378906 145.847656 102.378906 Z M 145.847656 111.015625 C 143.339844 111.015625 142.378906 109.308594 142.378906 107.65625 C 142.378906 105.898438 143.339844 104.191406 145.847656 104.191406 C 148.351563 104.191406 149.308594 105.898438 149.308594 107.65625 C 149.308594 109.308594 148.351563 111.015625 145.847656 111.015625 Z M 87.371094 107.175781 C 88.488281 106.75 89.128906 106.058594 89.128906 105.097656 C 89.128906 103.230469 87.476563 102.59375 85.023438 102.59375 L 79.054688 102.59375 L 79.054688 112.613281 L 85.238281 112.613281 C 87.53125 112.613281 89.714844 111.761719 89.714844 109.679688 C 89.714844 108.457031 88.914063 107.496094 87.371094 107.175781 Z M 81.878906 104.296875 L 84.492188 104.296875 C 85.503906 104.296875 86.410156 104.511719 86.410156 105.472656 C 86.410156 106.324219 85.664063 106.644531 84.703125 106.644531 L 81.878906 106.644531 Z M 84.863281 110.90625 L 81.878906 110.90625 L 81.878906 108.136719 L 84.917969 108.136719 C 86.089844 108.136719 86.941406 108.5625 86.941406 109.574219 C 86.941406 110.640625 85.984375 110.90625 84.863281 110.90625 Z M 176.121094 112.132813 C 174.898438 112.132813 173.777344 113.039063 173.777344 114.425781 C 173.777344 115.8125 174.898438 116.71875 176.121094 116.71875 C 177.402344 116.71875 178.46875 115.8125 178.46875 114.425781 C 178.46875 113.039063 177.402344 112.132813 176.121094 112.132813 Z M 176.121094 116.238281 C 175.164063 116.238281 174.417969 115.4375 174.417969 114.425781 C 174.417969 113.359375 175.164063 112.613281 176.121094 112.613281 C 177.082031 112.613281 177.882813 113.359375 177.882813 114.425781 C 177.882813 115.4375 177.082031 116.238281 176.121094 116.238281 Z M 177.1875 113.894531 C 177.1875 113.304688 176.816406 113.148438 176.175781 113.148438 L 175.21875 113.148438 L 175.21875 115.707031 L 175.75 115.707031 L 175.75 114.585938 L 176.070313 114.585938 L 176.65625 115.707031 L 177.1875 115.707031 L 176.550781 114.585938 C 176.921875 114.53125 177.1875 114.371094 177.1875 113.894531 Z M 175.75 114.214844 L 175.75 113.519531 L 176.175781 113.519531 C 176.390625 113.519531 176.710938 113.574219 176.710938 113.839844 C 176.710938 114.160156 176.496094 114.214844 176.175781 114.214844 L 175.75 114.214844 "/>
</g>
</svg>
